# xmcd
#
# Track frame offsets: 
#        150
#        22640
#        37760
#        57185
#        85645
#        99887
#        111047
#        135720
#        159957
#        174442
#        191277
#        213075
#        233505
#        245317
#
# Disc length: 3567 seconds
#
# Revision: 1
# Processed by: cddbd v1.5.2PL0 Copyright (c) Steve Scherf et al.
# Submitted via: ExactAudioCopy v0.99pb3
#
DISCID=8e0ded0e
DTITLE=Lil Ed And Dave Weld With The Imperial Flames - Keep On Walkin'
DYEAR=1996
DGENRE=Blues
TTITLE0=North Carolina Bound (Acoustic Duo)
TTITLE1=Combination Boogie
TTITLE2=I'm Not A Slave
TTITLE3=Confess Diane
TTITLE4=So Long So Long
TTITLE5=Let's Boogie Baby
TTITLE6=Lonely, Lonely (When Evenin' Comes)
TTITLE7=Too Late Baby
TTITLE8=New Year's Resolution
TTITLE9=Sweet Shiny Brown Eyes
TTITLE10=I Can't Have Nothin'
TTITLE11=Keep On Walkin'
TTITLE12=Set My Sight On You
TTITLE13=North Carolina Bound (Band Version)
EXTD=
EXTT0=
EXTT1=
EXTT2=
EXTT3=
EXTT4=
EXTT5=
EXTT6=
EXTT7=
EXTT8=
EXTT9=
EXTT10=
EXTT11=
EXTT12=
EXTT13=
PLAYORDER=
